<?xml version="1.0" encoding="iso-8859-1"?>
<!-- Generator: Adobe Illustrator 17.1.0, SVG Export Plug-In . SVG Version: 6.00 Build 0)  -->
<!DOCTYPE svg PUBLIC "-//W3C//DTD SVG 1.1//EN" "http://www.w3.org/Graphics/SVG/1.1/DTD/svg11.dtd">
<svg version="1.1" id="Capa_1" xmlns="http://www.w3.org/2000/svg" xmlns:xlink="http://www.w3.org/1999/xlink" x="0px" y="0px"
	 viewBox="0 0 100 100" style="enable-background:new 0 0 100 100;" xml:space="preserve">
<g>
	<path style="fill:#000333;" d="M89.897,31.812c0.087-4.333-0.865-8.714-1.638-13.028c-0.266-1.485-0.805-2.92-1.336-4.328
		c-0.4-1.06-1.581-1.735-2.669-1.503c-0.704,0.15-1.337,0.296-1.951,0.498c-6.426,2.114-12.376,5.206-18.092,8.798
		c-0.768,0.482-1.885,0.656-2.812,0.588c-2.218-0.162-4.412-0.714-6.629-0.819c-5.487-0.26-10.963-0.093-16.4,0.858
		c-0.756,0.132-1.751,0.002-2.379-0.404c-6.233-4.033-12.718-7.485-20.013-9.423c-1.095-0.291-2.222-0.137-2.499,0.298
		c-0.169,0.266-0.322,0.542-0.406,0.838c-0.788,2.769-1.722,5.524-2.18,8.352c-0.546,3.375-1.071,6.852-0.812,10.223
		c0.163,2.119-0.422,3.421-1.58,4.908c-3.884,4.99-5.633,10.726-5.74,17.015c-0.092,5.379,0.62,10.621,2.258,15.763
		c2.509,7.879,7.354,13.792,14.649,17.639c5.998,3.163,12.534,4.382,19.222,4.617c6.028,0.211,12.068,0.032,18.103,0.066
		c6.049,0.034,12.015-0.505,17.802-2.391c5.792-1.887,10.804-4.932,14.693-9.72c5.617-6.916,7.366-15.063,7.725-23.687
		c0.275-6.595-1.069-12.799-4.931-18.194C90.716,36.587,89.838,34.707,89.897,31.812z M78.251,82.345
		c-2.594,2.243-5.766,3.305-9.013,4.081c-6.371,1.522-12.858,1.901-19.366,1.617c-6.433,0.279-12.792-0.122-19.051-1.595
		c-4.617-1.086-8.832-2.912-11.77-6.875c-4.675-6.307-5.87-18.31,1.855-24.861c1.97-1.67,4.167-2.73,6.763-2.895
		c2.865-0.183,5.731-0.54,8.594-0.506c7.222,0.086,14.441,0.445,21.662,0.499c3.298,0.024,6.619-0.745,9.893-0.547
		c2.975,0.18,6.103,0.728,8.803,1.925c4.501,1.996,6.924,6.043,7.656,10.783C85.367,71.019,83.929,77.434,78.251,82.345z"/>
	<ellipse style="fill:#000333;" cx="66.483" cy="68.605" rx="6.883" ry="9.199"/>
	<ellipse style="fill:#000333;" cx="33.64" cy="68.605" rx="6.884" ry="9.199"/>
</g>
</svg>
